<?xml version="1.0" encoding="utf-8"?>
<!-- Generator: Adobe Illustrator 21.0.0, SVG Export Plug-In . SVG Version: 6.00 Build 0)  -->
<svg version="1.1" id="Layer_1" xmlns="http://www.w3.org/2000/svg" xmlns:xlink="http://www.w3.org/1999/xlink" x="0px" y="0px"
	 viewBox="0 0 238.4 326.3" style="enable-background:new 0 0 238.4 326.3;" xml:space="preserve">
<style type="text/css">
	.st0{fill:url(#SVGID_1_);}
	.st1{fill:url(#SVGID_2_);}
	.st2{fill:url(#SVGID_3_);}
	.st3{fill:url(#SVGID_4_);}
	.st4{fill:url(#SVGID_5_);}
	.st5{fill:url(#SVGID_6_);}
	.st6{fill:url(#SVGID_7_);}
	.st7{fill:url(#SVGID_8_);}
</style>
<g>
	<g>
		
			<radialGradient id="SVGID_1_" cx="170.2574" cy="63.6412" r="189.9486" gradientTransform="matrix(1 0 0 -1 0 325.89)" gradientUnits="userSpaceOnUse">
			<stop  offset="0" style="stop-color:#FFA700"/>
			<stop  offset="1" style="stop-color:#ED1E25"/>
		</radialGradient>
		<path class="st0" d="M238.4,264.7c-4.1,37.5-37.8,65-73.6,61.3c-38.7-4-66.3-37.2-62.3-75.7c6.8,40.2,28.7,63.9,69.9,65.3
			C200.7,316.5,228.3,297.5,238.4,264.7z"/>
	</g>
	<g>
		
			<radialGradient id="SVGID_2_" cx="170.3664" cy="63.6446" r="189.7301" gradientTransform="matrix(1 0 0 -1 0 325.89)" gradientUnits="userSpaceOnUse">
			<stop  offset="0" style="stop-color:#FFA700"/>
			<stop  offset="1" style="stop-color:#ED1E25"/>
		</radialGradient>
		<path class="st1" d="M133.5,279.6c-20.8-22.9-20.3-48.7-4.4-75c-14,10.1-22,33.5-17.8,53.8c4.9,23.7,19.4,39.4,42.8,45.8
			c19.8,5.5,37.8,0.9,53.5-12.4C180,304.5,154.3,302.5,133.5,279.6z"/>
	</g>
	<g>
		
			<radialGradient id="SVGID_3_" cx="170.3661" cy="63.6428" r="189.7241" gradientTransform="matrix(1 0 0 -1 0 325.89)" gradientUnits="userSpaceOnUse">
			<stop  offset="0" style="stop-color:#FFA700"/>
			<stop  offset="1" style="stop-color:#ED1E25"/>
		</radialGradient>
		<path class="st2" d="M146.5,193c-18.2,8-28.4,37.5-20.8,60.2c8.4,25.4,34.9,41.2,59.7,35.6C136.3,284.5,114.8,228.7,146.5,193z"/>
	</g>
	<g>
		<g>
			
				<radialGradient id="SVGID_4_" cx="106.75" cy="209.09" r="52.7331" gradientTransform="matrix(1 0 0 -1 0 325.89)" gradientUnits="userSpaceOnUse">
				<stop  offset="0" style="stop-color:#FFA700"/>
				<stop  offset="1" style="stop-color:#ED1E25"/>
			</radialGradient>
			<path class="st3" d="M167.6,136.3C87.3,123.7,38.3,87.2,38.3,87.2s18.2,43.2,136.9,59.2C172.1,143.5,169.6,140.1,167.6,136.3z"/>
		</g>
		<g>
			
				<radialGradient id="SVGID_5_" cx="87.75" cy="250.49" r="59.1625" gradientTransform="matrix(1 0 0 -1 0 325.89)" gradientUnits="userSpaceOnUse">
				<stop  offset="0" style="stop-color:#FFA700"/>
				<stop  offset="1" style="stop-color:#ED1E25"/>
			</radialGradient>
			<path class="st4" d="M151.1,102.4c-81.3-16.9-137-66.7-137-66.7S36.5,89,161.4,115.1C159.5,109.6,156.3,105.5,151.1,102.4z"/>
		</g>
		<g>
			
				<radialGradient id="SVGID_6_" cx="92.95" cy="232.29" r="57.1756" gradientTransform="matrix(1 0 0 -1 0 325.89)" gradientUnits="userSpaceOnUse">
				<stop  offset="0" style="stop-color:#FFA700"/>
				<stop  offset="1" style="stop-color:#ED1E25"/>
			</radialGradient>
			<path class="st5" d="M163,121.7c-0.1-0.9-0.3-1.7-0.4-2.5c-97-16.6-141.7-62.3-141.7-62.3s9,47.2,144.1,73.4
				C164.1,127.5,163.4,124.7,163,121.7z"/>
		</g>
	</g>
	<g>
		
			<radialGradient id="SVGID_7_" cx="170.3695" cy="63.6488" r="189.722" gradientTransform="matrix(1 0 0 -1 0 325.89)" gradientUnits="userSpaceOnUse">
			<stop  offset="0" style="stop-color:#FFA700"/>
			<stop  offset="1" style="stop-color:#ED1E25"/>
		</radialGradient>
		<path class="st6" d="M225.8,148.2L225.8,148.2c-21-33-7.3-41.2-4-41.2c3.2,0,6.5,5.2,6.5,5.2c2-10.2-3.5-11.6-3.5-11.6
			s2-7.4-15.1-16.1s-19.1-24.7-19.1-24.7c-2,25,16.3,37.1,16.3,37.1c-4.5-1.5-6.5-3.6-6.5-3.6l0,0c-0.1,0-0.5,0.1-1.2,0.4
			c-16,7.9-18.2,19.4-20.1,30.5l0,0c-0.6-1-0.9-1.4-1.1-1.9c-0.4-1.6-0.9-3.2-1.2-4.8c-0.7-4.5-1.9-8.5-3.6-12.1
			c-5.3-11.4-15.4-18.2-28.8-22.2c-13.3-4-26.6-8.5-39.3-14C70.4,54.1,39.6,32.6,10.4,8.6C8.2,6.8,6,4.9,3.8,3.1C2.6,2,1.3,1,0,0
			c10.1,19.8,25.1,34.9,42.6,47.6c29.9,21.5,63.4,35.3,98.5,45.3c14.9,4.2,24.5,12,26.8,28.1c1.8,12.4,8.1,21.9,18.7,27.8
			c0,0,10.1,5.1,21.6,4.2c0,0-6.3,3-20.9,0.9l0,0c-85-10.9-119-33.9-119-33.9s20.3,31.9,119.2,43.3c-0.2,0.3-0.3,0.5-0.5,0.8
			c-1.1,1.5-2.7,3.1-4.8,4.7c-21.4,16.6-67.5,47.8-34.6,89c-0.2-1.5-0.4-2.9-0.4-4.3c-0.1-4.6,0.8-8.9,2.7-12.7
			c7.9-16.6,30.7-28.9,54.4-36.5c11.3-3.7,19.4-6.9,24.7-12.6C237.9,181.7,239,169,225.8,148.2z"/>
	</g>
	<g>
		
			<radialGradient id="SVGID_8_" cx="170.3665" cy="63.6427" r="189.7353" gradientTransform="matrix(1 0 0 -1 0 325.89)" gradientUnits="userSpaceOnUse">
			<stop  offset="0" style="stop-color:#FFA700"/>
			<stop  offset="1" style="stop-color:#ED1E25"/>
		</radialGradient>
		<path class="st7" d="M213.4,242.7c-2.5,5-8.5,7.2-13.6,5c-5.3-2.3-7.7-8.5-5.4-13.8c1.2-2.7,3.4-4.6,5.9-5.6
			c-0.5-0.3-1.1-0.5-1.7-0.8c-14.2-6.2-30.7,0.2-37,14.4c-6.2,14.2,0.2,30.7,14.4,37c14.2,6.2,30.7-0.2,37-14.4
			C216.2,257.2,216.1,249.4,213.4,242.7z M193.9,262c-2.3-0.1-4.2-2.1-4.1-4.5c0.1-2.3,2.1-4.2,4.4-4.1c2.3,0.1,4.2,2.1,4.1,4.5
			S196.2,262.1,193.9,262z"/>
	</g>
</g>
</svg>
