<?xml version="1.0" encoding="utf-8"?>
<!-- Generator: Adobe Illustrator 21.0.0, SVG Export Plug-In . SVG Version: 6.00 Build 0)  -->
<svg version="1.1" id="Layer_1" xmlns="http://www.w3.org/2000/svg" xmlns:xlink="http://www.w3.org/1999/xlink" x="0px" y="0px"
	 viewBox="0 0 1028.1 326.3" style="enable-background:new 0 0 1028.1 326.3;" xml:space="preserve">
<style type="text/css">
	.st0{fill:#353535;}
	.st1{fill:url(#SVGID_1_);}
	.st2{fill:url(#SVGID_2_);}
	.st3{fill:url(#SVGID_3_);}
	.st4{fill:url(#SVGID_4_);}
	.st5{fill:url(#SVGID_5_);}
	.st6{fill:url(#SVGID_6_);}
	.st7{fill:url(#SVGID_7_);}
	.st8{fill:url(#SVGID_8_);}
</style>
<g>
	<path class="st0" d="M303.4,210.1h-18.3V149v-42.8h72.2h0.3v18.3h-0.3h-53.9V149H349h0.3v18.3H349h-45.6v4.3v20.3V210.1z"/>
	<path class="st0" d="M476.3,142.2c0,4.2-0.7,8.1-2,11.8s-3.2,7.1-5.6,10.2c-2.4,3.1-5.2,5.7-8.5,7.9s-6.8,3.8-10.6,4.8l24.8,33.2
		h-22.7l-23.9-32h-22.5l7-18.3h28c2.4,0,4.7-0.5,6.9-1.4c2.1-0.9,4-2.2,5.6-3.8s2.9-3.5,3.8-5.6s1.4-4.4,1.4-6.9
		c0-2.4-0.5-4.7-1.4-6.9c-0.9-2.1-2.2-4-3.8-5.6c-1.6-1.6-3.5-2.9-5.6-3.8s-4.4-1.4-6.8-1.4h-38v19.9v15.5v18.3v8.2v23.8h-18.3v-32
		V169v-62.7h56.3c5,0,9.7,0.9,14,2.8c4.4,1.9,8.2,4.4,11.4,7.7c3.3,3.3,5.8,7.1,7.7,11.4C475.3,132.5,476.3,137.2,476.3,142.2z"/>
	<path class="st0" d="M552.7,131l-18,45.5h30v18.3h-37.3l-6.1,15.5h-19.7l41.2-104h19.7l41.2,104H584L552.7,131z"/>
	<path class="st0" d="M709.8,195.8c-4.8,4.9-10.5,8.8-17,11.6s-13.4,4.2-20.8,4.2c-7.3,0-14.2-1.4-20.7-4.2s-12.1-6.6-17-11.4
		c-4.9-4.8-8.7-10.4-11.5-16.9s-4.2-13.4-4.2-20.8c0-7.3,1.4-14.2,4.2-20.7s6.7-12.1,11.5-17c4.9-4.9,10.5-8.7,17-11.5
		s13.4-4.2,20.7-4.2c7.4,0,14.4,1.4,20.8,4.2c6.5,2.8,12.1,6.7,17,11.5l-12.9,12.8c-3.2-3.2-6.9-5.7-11.2-7.5s-8.9-2.8-13.8-2.8
		c-4.9,0-9.4,0.9-13.7,2.8c-4.3,1.8-8,4.3-11.2,7.5s-5.7,6.9-7.5,11.2s-2.7,8.8-2.7,13.7s0.9,9.4,2.7,13.7s4.3,8,7.5,11.2
		s6.9,5.7,11.2,7.5s8.9,2.8,13.7,2.8c4.9,0,9.5-0.9,13.8-2.8c4.3-1.8,8-4.3,11.2-7.5L709.8,195.8z"/>
	<path class="st0" d="M817.2,124.5h-32.1v85.6h-18.3v-85.6h-32.1v-18.3h82.5L817.2,124.5L817.2,124.5z"/>
	<path class="st0" d="M870.3,131l-18,45.5h30v18.3H845l-6.1,15.5h-19.7l41.2-104h19.7l41.2,104h-19.7L870.3,131z"/>
	<path class="st0" d="M1028.1,210.1h-82.4V106.2H964v18.3v67.3h64.1V210.1z"/>
	<path class="st0" d="M363.6,285.8c0,22.6-17.8,40-39.6,40c-21.8,0-39.6-17.4-39.6-40s17.8-39.9,39.6-39.9
		C345.8,245.9,363.6,263.1,363.6,285.8z M296,285.8c0,15.9,11.6,30.4,28.1,30.4s28.1-14.5,28.1-30.4c0-15.8-11.6-30.3-28.1-30.3
		C307.6,255.4,296,270,296,285.8z"/>
	<path class="st0" d="M462.1,324.7h-13.9l-41.8-62v62h-11.6v-77.9h13.9l41.9,62v-62h11.5V324.7z"/>
	<path class="st0" d="M551.2,315.2v9.6h-53.8v-77.9h51.8v9.6h-40.3v23.1h32.9v9.7h-32.9v26.1h42.3L551.2,315.2L551.2,315.2z"/>
</g>
<g>
	<g>
		
			<radialGradient id="SVGID_1_" cx="169.5562" cy="64.8331" r="188.8893" gradientTransform="matrix(1 0 0 -1 0 325.89)" gradientUnits="userSpaceOnUse">
			<stop  offset="0" style="stop-color:#FFA700"/>
			<stop  offset="1" style="stop-color:#ED1E25"/>
		</radialGradient>
		<path class="st1" d="M237.4,263.5c-4.1,37.4-37.6,64.7-73.3,61c-38.6-4-66-37-62-75.3c6.8,40,28.5,63.6,69.6,65
			C199.7,315,227.2,296.1,237.4,263.5z"/>
	</g>
	<g>
		
			<radialGradient id="SVGID_2_" cx="169.5921" cy="64.8364" r="188.8678" gradientTransform="matrix(1 0 0 -1 0 325.89)" gradientUnits="userSpaceOnUse">
			<stop  offset="0" style="stop-color:#FFA700"/>
			<stop  offset="1" style="stop-color:#ED1E25"/>
		</radialGradient>
		<path class="st2" d="M132.9,278.4c-20.7-22.8-20.2-48.5-4.4-74.7c-13.9,10.1-21.9,33.3-17.7,53.5c4.9,23.5,19.3,39.2,42.6,45.6
			c19.7,5.5,37.6,0.9,53.2-12.4C179.2,303.2,153.6,301.1,132.9,278.4z"/>
	</g>
	<g>
		
			<radialGradient id="SVGID_3_" cx="169.5918" cy="64.8346" r="188.8618" gradientTransform="matrix(1 0 0 -1 0 325.89)" gradientUnits="userSpaceOnUse">
			<stop  offset="0" style="stop-color:#FFA700"/>
			<stop  offset="1" style="stop-color:#ED1E25"/>
		</radialGradient>
		<path class="st3" d="M145.9,192.1c-18.1,7.9-28.3,37.3-20.8,59.9c8.4,25.2,34.8,41,59.4,35.4C135.7,283.3,114.3,227.7,145.9,192.1
			z"/>
	</g>
	<g>
		<g>
			
				<radialGradient id="SVGID_4_" cx="106.25" cy="209.59" r="52.5103" gradientTransform="matrix(1 0 0 -1 0 325.89)" gradientUnits="userSpaceOnUse">
				<stop  offset="0" style="stop-color:#FFA700"/>
				<stop  offset="1" style="stop-color:#ED1E25"/>
			</radialGradient>
			<path class="st4" d="M166.8,135.7C86.9,123.1,38.1,86.8,38.1,86.8s18.2,43,136.3,59C171.3,142.8,168.8,139.4,166.8,135.7z"/>
		</g>
		<g>
			
				<radialGradient id="SVGID_5_" cx="87.35" cy="250.84" r="58.9255" gradientTransform="matrix(1 0 0 -1 0 325.89)" gradientUnits="userSpaceOnUse">
				<stop  offset="0" style="stop-color:#FFA700"/>
				<stop  offset="1" style="stop-color:#ED1E25"/>
			</radialGradient>
			<path class="st5" d="M150.5,101.9C69.5,85.1,14,35.5,14,35.5s22.3,53,146.7,79.1C158.8,109.1,155.5,105,150.5,101.9z"/>
		</g>
		<g>
			
				<radialGradient id="SVGID_6_" cx="92.55" cy="232.74" r="56.9384" gradientTransform="matrix(1 0 0 -1 0 325.89)" gradientUnits="userSpaceOnUse">
				<stop  offset="0" style="stop-color:#FFA700"/>
				<stop  offset="1" style="stop-color:#ED1E25"/>
			</radialGradient>
			<path class="st6" d="M162.2,121.1c-0.1-0.9-0.3-1.7-0.4-2.5c-96.6-16.5-141-62-141-62s8.9,47,143.5,73.1
				C163.3,126.9,162.7,124.1,162.2,121.1z"/>
		</g>
	</g>
	<g>
		
			<radialGradient id="SVGID_7_" cx="169.5952" cy="64.8406" r="188.8597" gradientTransform="matrix(1 0 0 -1 0 325.89)" gradientUnits="userSpaceOnUse">
			<stop  offset="0" style="stop-color:#FFA700"/>
			<stop  offset="1" style="stop-color:#ED1E25"/>
		</radialGradient>
		<path class="st7" d="M224.8,147.5L224.8,147.5c-20.9-32.8-7.2-41-4-41s6.5,5.2,6.5,5.2c2-10.2-3.5-11.5-3.5-11.5s2-7.3-15-16
			s-19-24.6-19-24.6c-2,24.9,16.2,36.9,16.2,36.9c-4.5-1.5-6.5-3.6-6.5-3.6l0,0c-0.1,0-0.5,0.1-1.2,0.4c-16,7.8-18.1,19.3-20,30.4
			l0,0c-0.6-1-0.9-1.4-1.1-1.9c-0.4-1.6-0.9-3.2-1.2-4.8c-0.7-4.5-1.9-8.5-3.6-12c-5.3-11.3-15.4-18.1-28.7-22.1
			c-13.2-4-26.4-8.5-39.1-14C70,53.8,39.4,32.5,10.4,8.6C8.2,6.8,6,4.9,3.8,3.1C2.5,2,1.3,1,0,0c10.1,19.7,25,34.8,42.4,47.4
			c29.7,21.4,63.1,35.2,98.1,45.1c14.9,4.2,24.4,11.9,26.7,28c1.8,12.4,8,21.8,18.6,27.7c0,0,10,5.1,21.5,4.2c0,0-6.3,3-20.8,0.9
			l0,0C101.8,142.4,68,119.5,68,119.5s20.2,31.8,118.6,43.1c-0.2,0.3-0.3,0.5-0.5,0.8c-1.1,1.5-2.7,3-4.8,4.7
			c-21.3,16.5-67.2,47.6-34.5,88.6c-0.2-1.5-0.4-2.9-0.4-4.3c-0.1-4.6,0.8-8.8,2.6-12.7c7.8-16.5,30.5-28.8,54.1-36.4
			c11.3-3.6,19.3-6.9,24.6-12.6C236.8,180.9,237.9,168.2,224.8,147.5z"/>
	</g>
	<g>
		
			<radialGradient id="SVGID_8_" cx="169.5923" cy="64.8345" r="188.873" gradientTransform="matrix(1 0 0 -1 0 325.89)" gradientUnits="userSpaceOnUse">
			<stop  offset="0" style="stop-color:#FFA700"/>
			<stop  offset="1" style="stop-color:#ED1E25"/>
		</radialGradient>
		<path class="st8" d="M212.4,241.6c-2.4,5-8.4,7.2-13.5,5c-5.3-2.3-7.7-8.5-5.3-13.7c1.2-2.7,3.3-4.6,5.9-5.6
			c-0.5-0.3-1.1-0.5-1.7-0.8c-14.1-6.2-30.6,0.2-36.8,14.3s0.2,30.6,14.3,36.8s30.6-0.2,36.8-14.3
			C215.2,256.1,215.1,248.3,212.4,241.6z M193,260.8c-2.3-0.1-4.2-2.1-4-4.4c0.1-2.3,2.1-4.1,4.4-4c2.3,0.1,4.1,2.1,4,4.4
			C197.3,259.1,195.3,260.9,193,260.8z"/>
	</g>
</g>
</svg>
